<?xml version="1.0" encoding="utf-8"?>
<svg version="1.1" xmlns:xlink="http://www.w3.org/1999/xlink" width="14px" height="14px" xmlns="http://www.w3.org/2000/svg">
  <g transform="matrix(1 0 0 1 -281 -187 )">
    <path d="M 13.9701704545455 10.8480113636364  C 13.9900568181818 10.8944128787879  14 10.9640151515151  14 11.0568181818182  C 14 11.2357954545455  13.9668560606061 11.4694602272727  13.9005681818182 11.7578125  C 13.8342803030303 12.0461647727273  13.764678030303 12.2732007575758  13.6917613636364 12.4389204545455  C 13.5525568181818 12.7703598484848  13.1482007575758 13.1216856060606  12.4786931818182 13.4928977272727  C 11.8555871212121 13.8309659090909  11.2391098484848 14  10.6292613636364 14  C 10.4502840909091 14  10.2746212121212 13.9883996212121  10.1022727272727 13.9651988636364  C 9.92992424242424 13.9419981060606  9.73934659090909 13.9005681818182  9.53053977272727 13.8409090909091  C 9.32173295454546 13.78125  9.16595643939394 13.7331912878788  9.06321022727273 13.6967329545455  C 8.96046401515152 13.6602746212121  8.77651515151515 13.5923295454545  8.51136363636364 13.4928977272727  C 8.24621212121212 13.3934659090909  8.08380681818182 13.3338068181818  8.02414772727273 13.3139204545455  C 7.37452651515152 13.0819128787879  6.79450757575758 12.8068181818182  6.28409090909091 12.4886363636364  C 5.44223484848485 11.9649621212121  4.56723484848485 11.249053030303  3.65909090909091 10.3409090909091  C 2.75094696969697 9.43276515151515  2.03503787878788 8.55776515151515  1.51136363636364 7.71590909090909  C 1.19318181818182 7.20549242424242  0.918087121212121 6.62547348484848  0.686079545454545 5.97585227272727  C 0.666193181818182 5.91619318181818  0.606534090909091 5.75378787878788  0.507102272727273 5.48863636363636  C 0.407670454545455 5.22348484848485  0.339725378787879 5.03953598484848  0.303267045454545 4.93678977272727  C 0.266808712121212 4.83404356060606  0.21875 4.67826704545455  0.159090909090909 4.46946022727273  C 0.0994318181818182 4.26065340909091  0.058001893939394 4.07007575757576  0.0348011363636364 3.89772727272727  C 0.0116003787878788 3.72537878787879  0 3.54971590909091  0 3.37073863636364  C 0 2.76089015151515  0.169034090909091 2.14441287878788  0.507102272727273 1.52130681818182  C 0.878314393939394 0.85179924242424  1.22964015151515 0.447443181818182  1.56107954545455 0.308238636363636  C 1.72679924242424 0.235321969696969  1.95383522727273 0.165719696969695  2.2421875 0.0994318181818179  C 2.53053977272727 0.0331439393939388  2.76420454545455 0  2.94318181818182 0  C 3.03598484848485 0  3.10558712121212 0.0099431818181821  3.15198863636364 0.0298295454545447  C 3.27130681818182 0.0696022727272732  3.4469696969697 0.321496212121212  3.67897727272727 0.785511363636364  C 3.75189393939394 0.911458333333331  3.85132575757576 1.0904356060606  3.97727272727273 1.32244318181818  C 4.1032196969697 1.55445075757576  4.21922348484849 1.76491477272727  4.32528409090909 1.95383522727273  C 4.4313446969697 2.14275568181818  4.53409090909091 2.32007575757576  4.63352272727273 2.48579545454546  C 4.65340909090909 2.5123106060606  4.71141098484849 2.59517045454546  4.80752840909091 2.734375  C 4.90364583333333 2.87357954545455  4.9749053030303 2.99124053030303  5.02130681818182 3.08735795454546  C 5.06770833333333 3.18347537878788  5.09090909090909 3.2779356060606  5.09090909090909 3.37073863636364  C 5.09090909090909 3.50331439393939  4.99644886363636 3.66903409090909  4.80752840909091 3.86789772727273  C 4.61860795454545 4.06676136363636  4.41311553030303 4.24905303030303  4.19105113636364 4.41477272727273  C 3.96898674242424 4.58049242424242  3.76349431818182 4.7561553030303  3.57457386363636 4.94176136363636  C 3.38565340909091 5.12736742424242  3.29119318181818 5.27982954545455  3.29119318181818 5.39914772727273  C 3.29119318181818 5.45880681818182  3.30776515151515 5.53338068181818  3.34090909090909 5.62286931818182  C 3.37405303030303 5.71235795454546  3.40222537878788 5.78030303030303  3.42542613636364 5.82670454545455  C 3.44862689393939 5.87310606060606  3.49502840909091 5.95265151515151  3.56463068181818 6.06534090909091  C 3.63423295454545 6.1780303030303  3.67234848484849 6.24100378787879  3.67897727272727 6.25426136363636  C 4.18276515151515 7.1624053030303  4.7594696969697 7.94128787878788  5.40909090909091 8.59090909090909  C 6.05871212121212 9.2405303030303  6.8375946969697 9.81723484848485  7.74573863636364 10.3210227272727  C 7.75899621212121 10.3276515151515  7.8219696969697 10.3657670454545  7.93465909090909 10.4353693181818  C 8.04734848484848 10.5049715909091  8.12689393939394 10.5513731060606  8.17329545454546 10.5745738636364  C 8.21969696969697 10.5977746212121  8.28764204545455 10.625946969697  8.37713068181818 10.6590909090909  C 8.46661931818182 10.6922348484848  8.54119318181818 10.7088068181818  8.60085227272727 10.7088068181818  C 8.72017045454546 10.7088068181818  8.87263257575758 10.6143465909091  9.05823863636364 10.4254261363636  C 9.2438446969697 10.2365056818182  9.41950757575758 10.0310132575758  9.58522727272727 9.80894886363636  C 9.75094696969697 9.58688446969697  9.93323863636364 9.38139204545455  10.1321022727273 9.19247159090909  C 10.3309659090909 9.00355113636364  10.4966856060606 8.90909090909091  10.6292613636364 8.90909090909091  C 10.7220643939394 8.90909090909091  10.8165246212121 8.93229166666667  10.9126420454545 8.97869318181818  C 11.008759469697 9.0250946969697  11.1264204545455 9.09635416666667  11.265625 9.19247159090909  C 11.4048295454545 9.28858901515151  11.4876893939394 9.34659090909091  11.5142045454545 9.36647727272727  C 11.6799242424242 9.46590909090909  11.8572443181818 9.5686553030303  12.0461647727273 9.67471590909091  C 12.2350852272727 9.78077651515151  12.4455492424242 9.8967803030303  12.6775568181818 10.0227272727273  C 12.9095643939394 10.1486742424242  13.0885416666667 10.2481060606061  13.2144886363636 10.3210227272727  C 13.6785037878788 10.5530303030303  13.9303977272727 10.7286931818182  13.9701704545455 10.8480113636364  Z " fill-rule="nonzero" fill="#5d92ff" stroke="none" transform="matrix(1 0 0 1 281 187 )" />
  </g>
</svg>