<?xml version="1.0" encoding="utf-8"?>
<svg version="1.1" xmlns:xlink="http://www.w3.org/1999/xlink" width="18px" height="21px" xmlns="http://www.w3.org/2000/svg">
  <g transform="matrix(1 0 0 1 -21 -94 )">
    <path d="M 15 6  C 15 7.1484375  14.69140625 8.2109375  14.07421875 9.1875  C 14.44140625 9.296875  14.791015625 9.4453125  15.123046875 9.6328125  C 15.455078125 9.8203125  15.802734375 10.10546875  16.166015625 10.48828125  C 16.529296875 10.87109375  16.83984375 11.322265625  17.09765625 11.841796875  C 17.35546875 12.361328125  17.5703125 13.033203125  17.7421875 13.857421875  C 17.9140625 14.681640625  18 15.60546875  18 16.62890625  C 18 17.83203125  17.609375 18.861328125  16.828125 19.716796875  C 16.046875 20.572265625  15.10546875 21  14.00390625 21  L 3.99609375 21  C 2.89453125 21  1.953125 20.572265625  1.171875 19.716796875  C 0.390625 18.861328125  0 17.83203125  0 16.62890625  C 0 15.60546875  0.0859375 14.681640625  0.2578125 13.857421875  C 0.4296875 13.033203125  0.64453125 12.361328125  0.90234375 11.841796875  C 1.16015625 11.322265625  1.470703125 10.87109375  1.833984375 10.48828125  C 2.197265625 10.10546875  2.544921875 9.8203125  2.876953125 9.6328125  C 3.208984375 9.4453125  3.55859375 9.296875  3.92578125 9.1875  C 3.30859375 8.2109375  3 7.1484375  3 6  C 3 5.1875  3.158203125 4.412109375  3.474609375 3.673828125  C 3.791015625 2.935546875  4.21875 2.296875  4.7578125 1.7578125  C 5.296875 1.21875  5.935546875 0.791015625  6.673828125 0.474609374999999  C 7.412109375 0.158203124999999  8.1875 0  9 0  C 9.8125 0  10.587890625 0.158203124999999  11.326171875 0.474609374999999  C 12.064453125 0.791015625  12.703125 1.21875  13.2421875 1.7578125  C 13.78125 2.296875  14.208984375 2.935546875  14.525390625 3.673828125  C 14.841796875 4.412109375  15 5.1875  15 6  Z M 12.181640625 2.818359375  C 11.302734375 1.939453125  10.2421875 1.5  9 1.5  C 7.7578125 1.5  6.697265625 1.939453125  5.818359375 2.818359375  C 4.939453125 3.697265625  4.5 4.7578125  4.5 6  C 4.5 7.2421875  4.939453125 8.302734375  5.818359375 9.181640625  C 6.697265625 10.060546875  7.7578125 10.5  9 10.5  C 10.2421875 10.5  11.302734375 10.060546875  12.181640625 9.181640625  C 13.060546875 8.302734375  13.5 7.2421875  13.5 6  C 13.5 4.7578125  13.060546875 3.697265625  12.181640625 2.818359375  Z M 3.99609375 19.5  L 14.00390625 19.5  C 14.69140625 19.5  15.279296875 19.220703125  15.767578125 18.662109375  C 16.255859375 18.103515625  16.5 17.42578125  16.5 16.62890625  C 16.5 14.76171875  16.193359375 13.2890625  15.580078125 12.2109375  C 14.966796875 11.1328125  14.0859375 10.56640625  12.9375 10.51171875  C 11.8046875 11.50390625  10.4921875 12  9 12  C 7.5078125 12  6.1953125 11.50390625  5.0625 10.51171875  C 3.9140625 10.56640625  3.033203125 11.1328125  2.419921875 12.2109375  C 1.806640625 13.2890625  1.5 14.76171875  1.5 16.62890625  C 1.5 17.42578125  1.744140625 18.103515625  2.232421875 18.662109375  C 2.720703125 19.220703125  3.30859375 19.5  3.99609375 19.5  Z " fill-rule="nonzero" fill="#5d92ff" stroke="none" transform="matrix(1 0 0 1 21 94 )" />
  </g>
</svg>