<?xml version="1.0" encoding="utf-8"?>
<svg version="1.1" xmlns:xlink="http://www.w3.org/1999/xlink" width="16px" height="18px" xmlns="http://www.w3.org/2000/svg">
  <g transform="matrix(1 0 0 1 -21 -261 )">
    <path d="M 12.0416666666667 0.683035714285715  L 15.2916666666667 3.81696428571429  C 15.4861111111111 4.00446428571428  15.6527777777778 4.25892857142857  15.7916666666667 4.58035714285714  C 15.9305555555556 4.90178571428572  16 5.19642857142857  16 5.46428571428572  L 16 17.0357142857143  C 16 17.3035714285714  15.9027777777778 17.53125  15.7083333333333 17.71875  C 15.5138888888889 17.90625  15.2777777777778 18  15 18  L 1 18  C 0.722222222222222 18  0.486111111111111 17.90625  0.291666666666667 17.71875  C 0.0972222222222222 17.53125  0 17.3035714285714  0 17.0357142857143  L 0 0.964285714285715  C 0 0.696428571428571  0.0972222222222222 0.468749999999999  0.291666666666667 0.28125  C 0.486111111111111 0.0937500000000007  0.722222222222222 0  1 0  L 10.3333333333333 0  C 10.6111111111111 0  10.9166666666667 0.0669642857142865  11.25 0.200892857142857  C 11.5833333333333 0.334821428571428  11.8472222222222 0.495535714285714  12.0416666666667 0.683035714285715  Z M 11.09375 1.58705357142857  C 11.0104166666667 1.50669642857143  10.8680555555556 1.43303571428571  10.6666666666667 1.36607142857143  L 10.6666666666667 5.14285714285714  L 14.5833333333333 5.14285714285714  C 14.5138888888889 4.94866071428571  14.4375 4.81138392857143  14.3541666666667 4.73102678571428  L 11.09375 1.58705357142857  Z M 1.33333333333333 16.7142857142857  L 14.6666666666667 16.7142857142857  L 14.6666666666667 6.42857142857143  L 10.3333333333333 6.42857142857143  C 10.0555555555556 6.42857142857143  9.81944444444444 6.33482142857143  9.625 6.14732142857143  C 9.43055555555556 5.95982142857143  9.33333333333333 5.73214285714286  9.33333333333333 5.46428571428572  L 9.33333333333333 1.28571428571429  L 1.33333333333333 1.28571428571429  L 1.33333333333333 16.7142857142857  Z M 4 8.67857142857143  L 4 8.03571428571428  C 4 7.94196428571428  4.03125 7.86495535714286  4.09375 7.8046875  C 4.15625 7.74441964285714  4.23611111111111 7.71428571428572  4.33333333333333 7.71428571428572  L 11.6666666666667 7.71428571428572  C 11.7638888888889 7.71428571428572  11.84375 7.74441964285714  11.90625 7.8046875  C 11.96875 7.86495535714286  12 7.94196428571428  12 8.03571428571428  L 12 8.67857142857143  C 12 8.77232142857143  11.96875 8.84933035714286  11.90625 8.90959821428572  C 11.84375 8.96986607142857  11.7638888888889 9  11.6666666666667 9  L 4.33333333333333 9  C 4.23611111111111 9  4.15625 8.96986607142857  4.09375 8.90959821428572  C 4.03125 8.84933035714286  4 8.77232142857143  4 8.67857142857143  Z M 4.33333333333333 10.2857142857143  L 11.6666666666667 10.2857142857143  C 11.7638888888889 10.2857142857143  11.84375 10.3158482142857  11.90625 10.3761160714286  C 11.96875 10.4363839285714  12 10.5133928571429  12 10.6071428571429  L 12 11.25  C 12 11.34375  11.96875 11.4207589285714  11.90625 11.4810267857143  C 11.84375 11.5412946428571  11.7638888888889 11.5714285714286  11.6666666666667 11.5714285714286  L 4.33333333333333 11.5714285714286  C 4.23611111111111 11.5714285714286  4.15625 11.5412946428571  4.09375 11.4810267857143  C 4.03125 11.4207589285714  4 11.34375  4 11.25  L 4 10.6071428571429  C 4 10.5133928571429  4.03125 10.4363839285714  4.09375 10.3761160714286  C 4.15625 10.3158482142857  4.23611111111111 10.2857142857143  4.33333333333333 10.2857142857143  Z M 4.33333333333333 12.8571428571429  L 11.6666666666667 12.8571428571429  C 11.7638888888889 12.8571428571429  11.84375 12.8872767857143  11.90625 12.9475446428571  C 11.96875 13.0078125  12 13.0848214285714  12 13.1785714285714  L 12 13.8214285714286  C 12 13.9151785714286  11.96875 13.9921875  11.90625 14.0524553571429  C 11.84375 14.1127232142857  11.7638888888889 14.1428571428571  11.6666666666667 14.1428571428571  L 4.33333333333333 14.1428571428571  C 4.23611111111111 14.1428571428571  4.15625 14.1127232142857  4.09375 14.0524553571429  C 4.03125 13.9921875  4 13.9151785714286  4 13.8214285714286  L 4 13.1785714285714  C 4 13.0848214285714  4.03125 13.0078125  4.09375 12.9475446428571  C 4.15625 12.8872767857143  4.23611111111111 12.8571428571429  4.33333333333333 12.8571428571429  Z " fill-rule="nonzero" fill="#5d92ff" stroke="none" fill-opacity="0.827450980392157" transform="matrix(1 0 0 1 21 261 )" />
  </g>
</svg>