<?xml version="1.0" encoding="utf-8"?>
<svg version="1.1" xmlns:xlink="http://www.w3.org/1999/xlink" width="21px" height="12px" xmlns="http://www.w3.org/2000/svg">
  <g transform="matrix(1 0 0 1 -346 -11 )">
    <path d="M 2.33333333333333 2.4  L 17.5 2.4  L 17.5 9.6  L 2.33333333333333 9.6  L 2.33333333333333 2.4  Z M 18.6666666666667 10.5  L 18.6666666666667 7.8  L 19.8333333333333 7.8  L 19.8333333333333 4.2  L 18.6666666666667 4.2  L 18.6666666666667 1.5  C 18.6666666666667 1.4125  18.6393229166667 1.340625  18.5846354166667 1.284375  C 18.5299479166667 1.228125  18.4600694444444 1.2  18.375 1.2  L 1.45833333333333 1.2  C 1.37326388888889 1.2  1.30338541666667 1.228125  1.24869791666667 1.284375  C 1.19401041666667 1.340625  1.16666666666667 1.4125  1.16666666666667 1.5  L 1.16666666666667 10.5  C 1.16666666666667 10.5875  1.19401041666667 10.659375  1.24869791666667 10.715625  C 1.30338541666667 10.771875  1.37326388888889 10.8  1.45833333333333 10.8  L 18.375 10.8  C 18.4600694444444 10.8  18.5299479166667 10.771875  18.5846354166667 10.715625  C 18.6393229166667 10.659375  18.6666666666667 10.5875  18.6666666666667 10.5  Z M 20.658203125 3.3515625  C 20.8860677083333 3.5859375  21 3.86875  21 4.2  L 21 7.8  C 21 8.13125  20.8860677083333 8.4140625  20.658203125 8.6484375  C 20.4303385416667 8.8828125  20.1553819444444 9  19.8333333333333 9  L 19.8333333333333 10.5  C 19.8333333333333 10.9125  19.6905381944444 11.265625  19.4049479166667 11.559375  C 19.1193576388889 11.853125  18.7760416666667 12  18.375 12  L 1.45833333333333 12  C 1.05729166666667 12  0.713975694444445 11.853125  0.428385416666667 11.559375  C 0.142795138888889 11.265625  0 10.9125  0 10.5  L 0 1.5  C 0 1.0875  0.142795138888889 0.734375  0.428385416666667 0.440625  C 0.713975694444445 0.146874999999998  1.05729166666667 0  1.45833333333333 0  L 18.375 0  C 18.7760416666667 0  19.1193576388889 0.146874999999998  19.4049479166667 0.440625  C 19.6905381944444 0.734375  19.8333333333333 1.0875  19.8333333333333 1.5  L 19.8333333333333 3  C 20.1553819444444 3  20.4303385416667 3.1171875  20.658203125 3.3515625  Z " fill-rule="nonzero" fill="#000000" stroke="none" transform="matrix(1 0 0 1 346 11 )" />
  </g>
</svg>