<?xml version="1.0" encoding="utf-8"?>
<svg version="1.1" xmlns:xlink="http://www.w3.org/1999/xlink" width="14px" height="12px" xmlns="http://www.w3.org/2000/svg">
  <g transform="matrix(1 0 0 1 -299 -11 )">
    <path d="M 1.9296875 10.0703125  C 1.9765625 10.1171875  2 10.1770833333333  2 10.25  L 2 11.75  C 2 11.8229166666667  1.9765625 11.8828125  1.9296875 11.9296875  C 1.8828125 11.9765625  1.82291666666667 12  1.75 12  L 0.25 12  C 0.177083333333333 12  0.1171875 11.9765625  0.0703125 11.9296875  C 0.0234375 11.8828125  0 11.8229166666667  0 11.75  L 0 10.25  C 0 10.1770833333333  0.0234375 10.1171875  0.0703125 10.0703125  C 0.1171875 10.0234375  0.177083333333333 10  0.25 10  L 1.75 10  C 1.82291666666667 10  1.8828125 10.0234375  1.9296875 10.0703125  Z M 4.9296875 9.0703125  C 4.9765625 9.1171875  5 9.17708333333333  5 9.25  L 5 11.75  C 5 11.8229166666667  4.9765625 11.8828125  4.9296875 11.9296875  C 4.8828125 11.9765625  4.82291666666667 12  4.75 12  L 3.25 12  C 3.17708333333333 12  3.1171875 11.9765625  3.0703125 11.9296875  C 3.0234375 11.8828125  3 11.8229166666667  3 11.75  L 3 9.25  C 3 9.17708333333333  3.0234375 9.1171875  3.0703125 9.0703125  C 3.1171875 9.0234375  3.17708333333333 9  3.25 9  L 4.75 9  C 4.82291666666667 9  4.8828125 9.0234375  4.9296875 9.0703125  Z M 7.9296875 7.0703125  C 7.9765625 7.1171875  8 7.17708333333333  8 7.25  L 8 11.75  C 8 11.8229166666667  7.9765625 11.8828125  7.9296875 11.9296875  C 7.8828125 11.9765625  7.82291666666667 12  7.75 12  L 6.25 12  C 6.17708333333333 12  6.1171875 11.9765625  6.0703125 11.9296875  C 6.0234375 11.8828125  6 11.8229166666667  6 11.75  L 6 7.25  C 6 7.17708333333333  6.0234375 7.1171875  6.0703125 7.0703125  C 6.1171875 7.0234375  6.17708333333333 7  6.25 7  L 7.75 7  C 7.82291666666667 7  7.8828125 7.0234375  7.9296875 7.0703125  Z M 10.9296875 4.0703125  C 10.9765625 4.1171875  11 4.17708333333333  11 4.25  L 11 11.75  C 11 11.8229166666667  10.9765625 11.8828125  10.9296875 11.9296875  C 10.8828125 11.9765625  10.8229166666667 12  10.75 12  L 9.25 12  C 9.17708333333333 12  9.1171875 11.9765625  9.0703125 11.9296875  C 9.0234375 11.8828125  9 11.8229166666667  9 11.75  L 9 4.25  C 9 4.17708333333333  9.0234375 4.1171875  9.0703125 4.0703125  C 9.1171875 4.0234375  9.17708333333333 4  9.25 4  L 10.75 4  C 10.8229166666667 4  10.8828125 4.0234375  10.9296875 4.0703125  Z M 13.9296875 0.0703125  C 13.9765625 0.1171875  14 0.177083333333332  14 0.25  L 14 11.75  C 14 11.8229166666667  13.9765625 11.8828125  13.9296875 11.9296875  C 13.8828125 11.9765625  13.8229166666667 12  13.75 12  L 12.25 12  C 12.1770833333333 12  12.1171875 11.9765625  12.0703125 11.9296875  C 12.0234375 11.8828125  12 11.8229166666667  12 11.75  L 12 0.25  C 12 0.177083333333332  12.0234375 0.1171875  12.0703125 0.0703125  C 12.1171875 0.0234375  12.1770833333333 0  12.25 0  L 13.75 0  C 13.8229166666667 0  13.8828125 0.0234375  13.9296875 0.0703125  Z " fill-rule="nonzero" fill="#000000" stroke="none" transform="matrix(1 0 0 1 299 11 )" />
  </g>
</svg>