<?xml version="1.0" encoding="utf-8"?>
<svg version="1.1" xmlns:xlink="http://www.w3.org/1999/xlink" width="21px" height="12px" xmlns="http://www.w3.org/2000/svg">
  <g transform="matrix(1 0 0 1 -338 -365 )">
    <path d="M 20.7895791583166 1.23711340206186  C 20.9298597194389 1.37457044673539  21 1.53264604810996  21 1.71134020618557  C 21 1.89003436426117  20.9298597194389 2.04810996563574  20.7895791583166 2.18556701030928  L 10.9839679358717 11.7938144329897  C 10.8436873747495 11.9312714776632  10.6823647294589 12  10.5 12  C 10.3176352705411 12  10.1563126252505 11.9312714776632  10.0160320641283 11.7938144329897  L 0.210420841683367 2.18556701030928  C 0.0701402805611225 2.04810996563574  0 1.89003436426117  0 1.71134020618557  C 0 1.53264604810996  0.0701402805611225 1.37457044673539  0.210420841683367 1.23711340206186  L 1.2625250501002 0.20618556701031  C 1.40280561122245 0.0687285223367682  1.56412825651303 0  1.74649298597194 0  C 1.92885771543086 0  2.09018036072144 0.0687285223367682  2.23046092184369 0.20618556701031  L 10.5 8.30927835051546  L 18.7695390781563 0.20618556701031  C 18.9098196392786 0.0687285223367682  19.0711422845691 0  19.2535070140281 0  C 19.435871743487 0  19.5971943887776 0.0687285223367682  19.7374749498998 0.20618556701031  L 20.7895791583166 1.23711340206186  Z " fill-rule="nonzero" fill="#7f7f7f" stroke="none" transform="matrix(1 0 0 1 338 365 )" />
  </g>
</svg>