<?xml version="1.0" encoding="utf-8"?>
<svg version="1.1" xmlns:xlink="http://www.w3.org/1999/xlink" width="17px" height="12px" xmlns="http://www.w3.org/2000/svg">
  <g transform="matrix(1 0 0 1 -321 -11 )">
    <path d="M 9.30498981670061 11.3677419354839  C 8.8837406653089 11.789247311828  8.61541072640869 12  8.5 12  C 8.38458927359131 12  8.11625933469111 11.789247311828  7.69501018329939 11.3677419354839  C 7.27376103190767 10.9462365591398  7.06313645621181 10.6781362007168  7.06313645621181 10.5634408602151  C 7.06313645621181 10.3799283154122  7.24346571622539 10.2250896057348  7.60412423625255 10.0989247311828  C 7.9647827562797 9.97275985663082  8.26340801086219 9.90967741935484  8.5 9.90967741935484  C 8.73659198913782 9.90967741935484  9.0352172437203 9.97275985663082  9.39587576374745 10.0989247311828  C 9.75653428377461 10.2250896057348  9.93686354378819 10.3799283154122  9.93686354378819 10.5634408602151  C 9.93686354378819 10.6781362007168  9.72623896809233 10.9462365591398  9.30498981670061 11.3677419354839  Z M 11.6463849287169 9.02365591397849  C 11.2107094365241 9.45376344086021  10.9409368635438 9.66881720430107  10.837067209776 9.66881720430107  C 10.8255261371351 9.66881720430107  10.7101154107264 9.59713261648745  10.4908350305499 9.45376344086021  C 10.2715546503734 9.31039426523297  9.97869993211134 9.16702508960573  9.61227087576375 9.02365591397849  C 9.24584181941616 8.88028673835126  8.87508486082824 8.80860215053763  8.5 8.80860215053763  C 8.12491513917176 8.80860215053763  7.75415818058384 8.88028673835126  7.38772912423625 9.02365591397849  C 7.02130006788866 9.16702508960573  6.72988798370672 9.31039426523297  6.51349287169043 9.45376344086021  C 6.29709775967413 9.59713261648745  6.18024439918534 9.66881720430107  6.16293279022403 9.66881720430107  C 6.05906313645621 9.66881720430107  5.7892905634759 9.45376344086021  5.3536150712831 9.02365591397849  C 4.91793957909029 8.59354838709677  4.70010183299389 8.32688172043011  4.70010183299389 8.2236559139785  C 4.70010183299389 8.14910394265233  4.72895451459606 8.0831541218638  4.78665987780041 8.0258064516129  C 5.2367617107943 7.584229390681  5.80227427019688 7.23727598566308  6.48319755600815 6.98494623655914  C 7.16412084181942 6.7326164874552  7.83638832315004 6.60645161290323  8.5 6.60645161290323  C 9.16361167684997 6.60645161290323  9.83587915818059 6.7326164874552  10.5168024439919 6.98494623655914  C 11.1977257298031 7.23727598566308  11.7632382892057 7.584229390681  12.2133401221996 8.0258064516129  C 12.2710454854039 8.0831541218638  12.2998981670061 8.14910394265233  12.2998981670061 8.2236559139785  C 12.2998981670061 8.32688172043011  12.0820604209097 8.59354838709677  11.6463849287169 9.02365591397849  Z M 13.9964358452139 6.68387096774194  C 13.5636456211813 7.11397849462366  13.2982009504413 7.32903225806452  13.2001018329939 7.32903225806452  C 13.1366259334691 7.32903225806452  13.0702647657841 7.30609318996416  13.0010183299389 7.26021505376344  C 12.2162253903598 6.65806451612903  11.4891378139851 6.21505376344086  10.8197556008147 5.93118279569893  C 10.1503733876443 5.64731182795699  9.37712152070604 5.50537634408602  8.5 5.50537634408602  C 8.00950441276307 5.50537634408602  7.51756619144603 5.56845878136201  7.02418533604888 5.69462365591398  C 6.53080448065173 5.82078853046595  6.10089952477936 5.97275985663082  5.73447046843177 6.1505376344086  C 5.36804141208418 6.32831541218638  5.04056347589952 6.50609318996416  4.7520366598778 6.68387096774194  C 4.46350984385608 6.86164874551971  4.23557365919891 7.01362007168459  4.06822810590631 7.13978494623656  C 3.90088255261371 7.26594982078853  3.81143923964698 7.32903225806452  3.79989816700611 7.32903225806452  C 3.70179904955872 7.32903225806452  3.43635437881874 7.11397849462366  3.00356415478615 6.68387096774194  C 2.57077393075356 6.25376344086022  2.35437881873727 5.98709677419355  2.35437881873727 5.88387096774194  C 2.35437881873727 5.81505376344086  2.38323150033944 5.75197132616487  2.44093686354379 5.69462365591398  C 3.20264765784114 4.93763440860215  4.12593346911066 4.34982078853047  5.21079429735234 3.93118279569892  C 6.29565512559403 3.51254480286738  7.39205702647658 3.30322580645161  8.5 3.30322580645161  C 9.60794297352342 3.30322580645161  10.704344874406 3.51254480286738  11.7892057026477 3.93118279569892  C 12.8740665308893 4.34982078853047  13.7973523421589 4.93763440860215  14.5590631364562 5.69462365591398  C 14.6167684996606 5.75197132616487  14.6456211812627 5.81505376344086  14.6456211812627 5.88387096774194  C 14.6456211812627 5.98709677419355  14.4292260692464 6.25376344086022  13.9964358452139 6.68387096774194  Z M 16.3464867617108 4.35268817204301  C 15.910811269518 4.78279569892473  15.6439239646979 4.99784946236559  15.5458248472505 4.99784946236559  C 15.4823489477257 4.99784946236559  15.418873048201 4.97204301075269  15.3553971486762 4.92043010752688  C 14.3224711473184 4.02007168458781  13.2505940257977 3.34193548387097  12.1397657841141 2.88602150537634  C 11.0289375424304 2.43010752688172  9.81568228105906 2.20215053763441  8.5 2.20215053763441  C 7.18431771894094 2.20215053763441  5.97106245756959 2.43010752688172  4.86023421588595 2.88602150537634  C 3.74940597420231 3.34193548387097  2.6775288526816 4.02007168458781  1.64460285132383 4.92043010752688  C 1.58112695179905 4.97204301075269  1.51765105227427 4.99784946236559  1.45417515274949 4.99784946236559  C 1.3560760353021 4.99784946236559  1.08918873048201 4.78279569892473  0.653513238289206 4.35268817204301  C 0.217837746096402 3.92258064516129  0 3.65591397849462  0 3.55268817204301  C 0 3.47813620071685  0.0288526816021725 3.41218637992831  0.0865580448065173 3.35483870967742  C 1.16564833672777 2.28817204301075  2.44959266802444 1.46236559139785  3.93839103869654 0.87741935483871  C 5.42718940936864 0.292473118279569  6.94772572980312 0  8.5 0  C 10.0522742701969 0  11.5728105906314 0.292473118279569  13.0616089613035 0.87741935483871  C 14.5504073319756 1.46236559139785  15.8343516632722 2.28817204301075  16.9134419551935 3.35483870967742  C 16.9711473183978 3.41218637992831  17 3.47813620071685  17 3.55268817204301  C 17 3.65591397849462  16.7821622539036 3.92258064516129  16.3464867617108 4.35268817204301  Z " fill-rule="nonzero" fill="#000000" stroke="none" transform="matrix(1 0 0 1 321 11 )" />
  </g>
</svg>