<?xml version="1.0" encoding="utf-8"?>
<svg version="1.1" xmlns:xlink="http://www.w3.org/1999/xlink" width="10px" height="18px" xmlns="http://www.w3.org/2000/svg">
  <g transform="matrix(1 0 0 1 -21 -41 )">
    <path d="M 9.82817869415807 1.08216432865731  C 9.94272623138603 1.20240480961924  10 1.34068136272545  10 1.49699398797595  C 10 1.65330661322645  9.94272623138603 1.79158316633266  9.82817869415807 1.91182364729459  L 3.07560137457045 9  L 9.82817869415807 16.0881763527054  C 9.94272623138603 16.2084168336673  10 16.3466933867735  10 16.503006012024  C 10 16.6593186372745  9.94272623138603 16.7975951903808  9.82817869415807 16.9178356713427  L 8.96907216494845 17.8196392785571  C 8.8545246277205 17.939879759519  8.72279495990836 18  8.57388316151203 18  C 8.4249713631157 18  8.29324169530355 17.939879759519  8.1786941580756 17.8196392785571  L 0.171821305841924 9.41482965931864  C 0.0572737686139748 9.29458917835671  0 9.1563126252505  0 9  C 0 8.8436873747495  0.0572737686139748 8.70541082164329  0.171821305841924 8.58517034068136  L 8.1786941580756 0.180360721442886  C 8.29324169530355 0.0601202404809613  8.4249713631157 0  8.57388316151203 0  C 8.72279495990836 0  8.8545246277205 0.0601202404809613  8.96907216494845 0.180360721442886  L 9.82817869415807 1.08216432865731  Z " fill-rule="nonzero" fill="#ffffff" stroke="none" transform="matrix(1 0 0 1 21 41 )" />
  </g>
</svg>