<?xml version="1.0" encoding="utf-8"?>
<svg version="1.1" xmlns:xlink="http://www.w3.org/1999/xlink" width="12px" height="14px" xmlns="http://www.w3.org/2000/svg">
  <g transform="matrix(1 0 0 1 -178 -6 )">
    <path d="M 12 2.80000000000004  C 12 2.02999999999997  11.4 1.40000000000001  10.6666666666666 1.40000000000001  L 10 1.40000000000001  L 10 0  L 8.66666666666663 0  L 8.66666666666663 1.40000000000001  L 3.33333333333337 1.40000000000001  L 3.33333333333337 0  L 2 0  L 2 1.40000000000001  L 1.33333333333331 1.40000000000001  C 0.599999999999966 1.40000000000001  0 2.02999999999997  0 2.80000000000004  L 0 12.6  C 0 13.37  0.599999999999966 14  1.33333333333331 14  L 10.6666666666666 14  C 11.4 14  12 13.37  12 12.6  L 12 2.80000000000004  Z M 10.6666666666666 4.90000000000001  L 10.6666666666666 12.6  L 1.33333333333331 12.6  L 1.33333333333331 4.90000000000001  L 10.6666666666666 4.90000000000001  Z " fill-rule="nonzero" fill="#999999" stroke="none" transform="matrix(1 0 0 1 178 6 )" />
  </g>
</svg>