<?xml version="1.0" encoding="utf-8"?>
<svg version="1.1" xmlns:xlink="http://www.w3.org/1999/xlink" width="10px" height="10px" xmlns="http://www.w3.org/2000/svg">
  <g transform="matrix(1 0 0 1 -21 -11 )">
    <path d="M 5.92132505175982 8.93787575150301  C 5.99033816425128 9.00467601870409  6.02484472049684 9.08149632598531  6.02484472049684 9.16833667334669  C 6.02484472049684 9.25517702070809  5.99033816425128 9.33199732798931  5.92132505175982 9.39879759519039  L 5.40372670807449 9.89979959919842  C 5.33471359558325 9.96659986639946  5.25534851621819 10  5.16563146997919 10  C 5.07591442374053 10  4.99654934437535 9.96659986639946  4.92753623188401 9.89979959919842  L 0.103519668737022 5.23046092184367  C 0.0345065562457876 5.16366065464263  0 5.0868403473614  0 5  C 0 4.9131596526386  0.0345065562457876 4.83633934535737  0.103519668737022 4.76953907815633  L 4.92753623188401 0.100200400801583  C 4.99654934437535 0.0334001336005372  5.07591442374053 0  5.16563146997919 0  C 5.25534851621819 0  5.33471359558325 0.0334001336005372  5.40372670807449 0.100200400801583  L 5.92132505175982 0.601202404809612  C 5.99033816425128 0.668002672010687  6.02484472049684 0.744822979291911  6.02484472049684 0.831663326653313  C 6.02484472049684 0.918503674014687  5.99033816425128 0.995323981295911  5.92132505175982 1.06212424849699  L 1.85300207039336 5  L 5.92132505175982 8.93787575150301  Z M 9.89648033126298 8.93787575150301  C 9.96549344375433 9.00467601870409  10 9.08149632598531  10 9.16833667334669  C 10 9.25517702070809  9.96549344375433 9.33199732798931  9.89648033126298 9.39879759519039  L 9.37888198757753 9.89979959919842  C 9.30986887508629 9.96659986639946  9.23050379572123 10  9.14078674948234 10  C 9.05106970324357 10  8.97170462387851 9.96659986639946  8.90269151138705 9.89979959919842  L 4.07867494824018 5.23046092184367  C 4.00966183574872 5.16366065464263  3.97515527950316 5.0868403473614  3.97515527950316 5  C 3.97515527950316 4.9131596526386  4.00966183574872 4.83633934535737  4.07867494824018 4.76953907815633  L 8.90269151138705 0.100200400801583  C 8.97170462387851 0.0334001336005372  9.05106970324357 0  9.14078674948234 0  C 9.23050379572123 0  9.30986887508629 0.0334001336005372  9.37888198757753 0.100200400801583  L 9.89648033126298 0.601202404809612  C 9.96549344375433 0.668002672010687  10 0.744822979291911  10 0.831663326653313  C 10 0.918503674014687  9.96549344375433 0.995323981295911  9.89648033126298 1.06212424849699  L 5.82815734989651 5  L 9.89648033126298 8.93787575150301  Z " fill-rule="nonzero" fill="#1c6fff" stroke="none" transform="matrix(1 0 0 1 21 11 )" />
  </g>
</svg>