<?xml version="1.0" encoding="utf-8"?>
<svg version="1.1" xmlns:xlink="http://www.w3.org/1999/xlink" width="10px" height="10px" xmlns="http://www.w3.org/2000/svg">
  <g transform="matrix(1 0 0 1 -219 -11 )">
    <path d="M 5.92132505175982 4.76953907815633  C 5.99033816425128 4.83633934535737  6.02484472049684 4.9131596526386  6.02484472049684 5  C 6.02484472049684 5.0868403473614  5.99033816425128 5.16366065464263  5.92132505175982 5.23046092184367  L 1.09730848861295 9.89979959919842  C 1.02829537612149 9.96659986639946  0.94893029675643 10  0.859213250517655 10  C 0.769496204278767 10  0.690131124913705 9.96659986639946  0.621118012422471 9.89979959919842  L 0.103519668737022 9.39879759519039  C 0.0345065562456739 9.33199732798931  0 9.25517702070809  0 9.16833667334669  C 0 9.08149632598531  0.0345065562456739 9.00467601870409  0.103519668737022 8.93787575150301  L 4.17184265010349 5  L 0.103519668737022 1.06212424849699  C 0.0345065562456739 0.995323981295911  0 0.918503674014687  0 0.831663326653313  C 0 0.744822979291911  0.0345065562456739 0.668002672010687  0.103519668737022 0.601202404809612  L 0.621118012422471 0.100200400801583  C 0.690131124913705 0.0334001336005372  0.769496204278767 0  0.859213250517655 0  C 0.94893029675643 0  1.02829537612149 0.0334001336005372  1.09730848861295 0.100200400801583  L 5.92132505175982 4.76953907815633  Z M 9.89648033126298 4.76953907815633  C 9.96549344375433 4.83633934535737  10 4.9131596526386  10 5  C 10 5.0868403473614  9.96549344375433 5.16366065464263  9.89648033126298 5.23046092184367  L 5.07246376811599 9.89979959919842  C 5.00345065562465 9.96659986639946  4.92408557625947 10  4.83436853002081 10  C 4.74465148378181 10  4.66528640441675 9.96659986639946  4.59627329192551 9.89979959919842  L 4.07867494824018 9.39879759519039  C 4.00966183574872 9.33199732798931  3.97515527950316 9.25517702070809  3.97515527950316 9.16833667334669  C 3.97515527950316 9.08149632598531  4.00966183574872 9.00467601870409  4.07867494824018 8.93787575150301  L 8.14699792960664 5  L 4.07867494824018 1.06212424849699  C 4.00966183574872 0.995323981295911  3.97515527950316 0.918503674014687  3.97515527950316 0.831663326653313  C 3.97515527950316 0.744822979291911  4.00966183574872 0.668002672010687  4.07867494824018 0.601202404809612  L 4.59627329192551 0.100200400801583  C 4.66528640441675 0.0334001336005372  4.74465148378181 0  4.83436853002081 0  C 4.92408557625947 0  5.00345065562465 0.0334001336005372  5.07246376811599 0.100200400801583  L 9.89648033126298 4.76953907815633  Z " fill-rule="nonzero" fill="#1c6fff" stroke="none" transform="matrix(1 0 0 1 219 11 )" />
  </g>
</svg>