<?xml version="1.0" encoding="utf-8"?>
<svg version="1.1" xmlns:xlink="http://www.w3.org/1999/xlink" width="6px" height="10px" xmlns="http://www.w3.org/2000/svg">
  <g transform="matrix(1 0 0 1 -203 -11 )">
    <path d="M 5.89690721649481 4.76953907815633  C 5.96563573883157 4.83633934535737  6 4.9131596526386  6 5  C 6 5.0868403473614  5.96563573883157 5.16366065464263  5.89690721649481 5.23046092184367  L 1.09278350515456 9.89979959919842  C 1.0240549828178 9.96659986639946  0.945017182130528 10  0.855670103092734 10  C 0.766323024054941 10  0.687285223367667 9.96659986639946  0.618556701030911 9.89979959919842  L 0.10309278350519 9.39879759519039  C 0.0343642611684345 9.33199732798931  0 9.25517702070809  0 9.16833667334669  C 0 9.08149632598531  0.0343642611684345 9.00467601870409  0.10309278350519 8.93787575150301  L 4.15463917525767 5  L 0.10309278350519 1.06212424849699  C 0.0343642611684345 0.995323981295911  0 0.918503674014687  0 0.831663326653313  C 0 0.744822979291911  0.0343642611684345 0.668002672010687  0.10309278350519 0.601202404809612  L 0.618556701030911 0.100200400801583  C 0.687285223367667 0.0334001336005372  0.766323024054941 0  0.855670103092734 0  C 0.945017182130528 0  1.0240549828178 0.0334001336005372  1.09278350515456 0.100200400801583  L 5.89690721649481 4.76953907815633  Z " fill-rule="nonzero" fill="#1c6fff" stroke="none" transform="matrix(1 0 0 1 203 11 )" />
  </g>
</svg>