<?xml version="1.0" encoding="utf-8"?>
<svg version="1.1" xmlns:xlink="http://www.w3.org/1999/xlink" width="6px" height="10px" xmlns="http://www.w3.org/2000/svg">
  <g transform="matrix(1 0 0 1 -42 -11 )">
    <path d="M 5.89690721649481 0.601202404809612  C 5.96563573883157 0.668002672010687  6 0.744822979291911  6 0.831663326653313  C 6 0.918503674014687  5.96563573883157 0.995323981295911  5.89690721649481 1.06212424849699  L 1.84536082474233 5  L 5.89690721649481 8.93787575150301  C 5.96563573883157 9.00467601870409  6 9.08149632598531  6 9.16833667334669  C 6 9.25517702070809  5.96563573883157 9.33199732798931  5.89690721649481 9.39879759519039  L 5.38144329896909 9.89979959919842  C 5.31271477663233 9.96659986639946  5.23367697594506 10  5.14432989690727 10  C 5.05498281786947 10  4.9759450171822 9.96659986639946  4.90721649484544 9.89979959919842  L 0.10309278350519 5.23046092184367  C 0.0343642611684345 5.16366065464263  0 5.0868403473614  0 5  C 0 4.9131596526386  0.0343642611684345 4.83633934535737  0.10309278350519 4.76953907815633  L 4.90721649484544 0.100200400801583  C 4.9759450171822 0.0334001336005372  5.05498281786947 0  5.14432989690727 0  C 5.23367697594506 0  5.31271477663233 0.0334001336005372  5.38144329896909 0.100200400801583  L 5.89690721649481 0.601202404809612  Z " fill-rule="nonzero" fill="#999999" stroke="none" transform="matrix(1 0 0 1 42 11 )" />
  </g>
</svg>