<?xml version="1.0" encoding="utf-8"?>
<svg version="1.1" xmlns:xlink="http://www.w3.org/1999/xlink" width="18px" height="14px" xmlns="http://www.w3.org/2000/svg">
  <g transform="matrix(1 0 0 1 -346 -92 )">
    <path d="M 17.9045758928571 9.09895833333333  C 17.9681919642857 9.16493055555555  18 9.24305555555556  18 9.33333333333333  L 18 11.3333333333333  C 18 11.4236111111111  17.9681919642857 11.5017361111111  17.9045758928571 11.5677083333333  C 17.8409598214286 11.6336805555556  17.765625 11.6666666666667  17.6785714285714 11.6666666666667  L 3.85714285714286 11.6666666666667  L 3.85714285714286 13.6666666666667  C 3.85714285714286 13.7569444444444  3.82533482142857 13.8350694444444  3.76171875 13.9010416666667  C 3.69810267857143 13.9670138888889  3.62276785714286 14  3.53571428571429 14  C 3.45535714285714 14  3.375 13.9652777777778  3.29464285714286 13.8958333333333  L 0.0904017857142857 10.5625  C 0.0301339285714286 10.5  0 10.4236111111111  0 10.3333333333333  C 0 10.2361111111111  0.0301339285714286 10.15625  0.0904017857142857 10.09375  L 3.3046875 6.76041666666667  C 3.36495535714286 6.69791666666667  3.44196428571429 6.66666666666667  3.53571428571429 6.66666666666667  C 3.62276785714286 6.66666666666667  3.69810267857143 6.69965277777778  3.76171875 6.765625  C 3.82533482142857 6.83159722222222  3.85714285714286 6.90972222222222  3.85714285714286 7  L 3.85714285714286 9  L 17.6785714285714 9  C 17.765625 9  17.8409598214286 9.03298611111111  17.9045758928571 9.09895833333333  Z M 17.9095982142857 3.42708333333333  C 17.9698660714286 3.48958333333333  18 3.56944444444444  18 3.66666666666667  C 18 3.76388888888889  17.9698660714286 3.84375  17.9095982142857 3.90625  L 14.6953125 7.23958333333333  C 14.6350446428571 7.30208333333333  14.5580357142857 7.33333333333333  14.4642857142857 7.33333333333333  C 14.3772321428571 7.33333333333333  14.3018973214286 7.30034722222222  14.23828125 7.234375  C 14.1746651785714 7.16840277777778  14.1428571428571 7.09027777777778  14.1428571428571 7  L 14.1428571428571 5  L 0.321428571428571 5  C 0.234375 5  0.159040178571429 4.96701388888889  0.0954241071428572 4.90104166666667  C 0.0318080357142857 4.83506944444444  0 4.75694444444444  0 4.66666666666667  L 0 2.66666666666667  C 0 2.57638888888889  0.0318080357142857 2.49826388888889  0.0954241071428572 2.43229166666667  C 0.159040178571429 2.36631944444444  0.234375 2.33333333333333  0.321428571428571 2.33333333333333  L 14.1428571428571 2.33333333333333  L 14.1428571428571 0.333333333333334  C 14.1428571428571 0.23611111111111  14.1729910714286 0.15625  14.2332589285714 0.0937500000000004  C 14.2935267857143 0.0312500000000007  14.3705357142857 0  14.4642857142857 0  C 14.5446428571429 0  14.625 0.0347222222222221  14.7053571428571 0.104166666666666  L 17.9095982142857 3.42708333333333  Z " fill-rule="nonzero" fill="#5d92ff" stroke="none" fill-opacity="0.827450980392157" transform="matrix(1 0 0 1 346 92 )" />
  </g>
</svg>