<?xml version="1.0" encoding="utf-8"?>
<svg version="1.1" xmlns:xlink="http://www.w3.org/1999/xlink" width="22px" height="13px" xmlns="http://www.w3.org/2000/svg">
  <g transform="matrix(1 0 0 1 -184 -291 )">
    <path d="M 21.7795591182365 10.6323024054983  C 21.9265197060788 10.7812142038946  22 10.9524627720504  22 11.1460481099656  C 22 11.3396334478809  21.9265197060788 11.5108820160367  21.7795591182365 11.659793814433  L 20.6773547094188 12.7766323024055  C 20.5303941215765 12.9255441008018  20.3613894455578 13  20.1703406813627 13  C 19.9792919171677 13  19.810287241149 12.9255441008018  19.6633266533066 12.7766323024055  L 11 3.99828178694158  L 2.33667334669339 12.7766323024055  C 2.18971275885104 12.9255441008018  2.02070808283233 13  1.82965931863727 13  C 1.63861055444222 13  1.46960587842351 12.9255441008018  1.32264529058116 12.7766323024055  L 0.220440881763527 11.659793814433  C 0.0734802939211759 11.5108820160367  0 11.3396334478809  0 11.1460481099656  C 0 10.9524627720504  0.0734802939211759 10.7812142038946  0.220440881763527 10.6323024054983  L 10.4929859719439 0.223367697594502  C 10.6399465597862 0.0744558991981655  10.8089512358049 0  11 0  C 11.1910487641951 0  11.3600534402138 0.0744558991981655  11.5070140280561 0.223367697594502  L 21.7795591182365 10.6323024054983  Z " fill-rule="nonzero" fill="#7f7f7f" stroke="none" transform="matrix(1 0 0 1 184 291 )" />
  </g>
</svg>