<?xml version="1.0" encoding="utf-8"?>
<svg version="1.1" xmlns:xlink="http://www.w3.org/1999/xlink" width="72px" height="72px" xmlns="http://www.w3.org/2000/svg">
  <g transform="matrix(1 0 0 1 -30 -351 )">
    <path d="M 30 351  L 102 351  L 102 423  L 30 423  L 30 351  " fill-rule="nonzero" fill="#cccccc" stroke="none" />
    <path d="M 35 356  L 97 356  L 97 418  L 35 418  L 35 356  " fill-rule="nonzero" fill="#ffffff" stroke="none" />
    <path d="M 72.84 372.6  C 69.816 372.6  67.44 370.224  67.44 367.2  C 67.44 364.176  69.816 361.8  72.84 361.8  C 75.864 361.8  78.24 364.176  78.24 367.2  C 78.24 370.224  75.864 372.6  72.84 372.6  " fill-rule="nonzero" fill="#cccccc" stroke="none" />
    <path d="M 37 416  L 37 384.1  L 51.5 369.6  L 71.8 381.2  L 83.4 378.3  L 95 381.2  L 95 416  L 37 416  " fill-rule="nonzero" fill="#169bd5" stroke="none" />
  </g>
</svg>