<?xml version="1.0" encoding="utf-8"?>
<svg version="1.1" xmlns:xlink="http://www.w3.org/1999/xlink" width="48px" height="48px" xmlns="http://www.w3.org/2000/svg">
  <g transform="matrix(1 0 0 1 -30 -336 )">
    <path d="M 30 336  L 78 336  L 78 384  L 30 384  L 30 336  " fill-rule="nonzero" fill="#cccccc" stroke="none" />
    <path d="M 33 339  L 75 339  L 75 381  L 33 381  L 33 339  " fill-rule="nonzero" fill="#ffffff" stroke="none" />
    <path d="M 58.56 350.4  C 56.544 350.4  54.96 348.816  54.96 346.8  C 54.96 344.784  56.544 343.2  58.56 343.2  C 60.576 343.2  62.16 344.784  62.16 346.8  C 62.16 348.816  60.576 350.4  58.56 350.4  " fill-rule="nonzero" fill="#cccccc" stroke="none" />
    <path d="M 34 380  L 34 358  L 44 348  L 58 356  L 66 354  L 74 356  L 74 380  L 34 380  " fill-rule="nonzero" fill="#169bd5" stroke="none" />
  </g>
</svg>