<?xml version="1.0" encoding="utf-8"?>
<svg version="1.1" xmlns:xlink="http://www.w3.org/1999/xlink" width="17px" height="15px" xmlns="http://www.w3.org/2000/svg">
  <g transform="matrix(1 0 0 1 -30 -785 )">
    <path d="M 6.15024038461538 12.6775568181818  C 6.40905448717949 12.9474431818182  6.53846153846154 13.2670454545455  6.53846153846154 13.6363636363636  C 6.53846153846154 14.0056818181818  6.40905448717949 14.3252840909091  6.15024038461538 14.5951704545455  C 5.89142628205128 14.8650568181818  5.5849358974359 15  5.23076923076923 15  C 4.87660256410256 15  4.57011217948718 14.8650568181818  4.31129807692308 14.5951704545455  C 4.05248397435897 14.3252840909091  3.92307692307692 14.0056818181818  3.92307692307692 13.6363636363636  C 3.92307692307692 13.2670454545455  4.05248397435897 12.9474431818182  4.31129807692308 12.6775568181818  C 4.57011217948718 12.4076704545455  4.87660256410256 12.2727272727273  5.23076923076923 12.2727272727273  C 5.5849358974359 12.2727272727273  5.89142628205128 12.4076704545455  6.15024038461538 12.6775568181818  Z M 15.3040865384615 12.6775568181818  C 15.5629006410256 12.9474431818182  15.6923076923077 13.2670454545455  15.6923076923077 13.6363636363636  C 15.6923076923077 14.0056818181818  15.5629006410256 14.3252840909091  15.3040865384615 14.5951704545455  C 15.0452724358974 14.8650568181818  14.7387820512821 15  14.3846153846154 15  C 14.0304487179487 15  13.7239583333333 14.8650568181818  13.4651442307692 14.5951704545455  C 13.2063301282051 14.3252840909091  13.0769230769231 14.0056818181818  13.0769230769231 13.6363636363636  C 13.0769230769231 13.2670454545455  13.2063301282051 12.9474431818182  13.4651442307692 12.6775568181818  C 13.7239583333333 12.4076704545455  14.0304487179487 12.2727272727273  14.3846153846154 12.2727272727273  C 14.7387820512821 12.2727272727273  15.0452724358974 12.4076704545455  15.3040865384615 12.6775568181818  Z M 16.8058894230769 1.56605113636364  C 16.935296474359 1.70099431818182  17 1.86079545454545  17 2.04545454545455  L 17 7.5  C 17 7.67045454545455  16.9438100961538 7.82137784090909  16.8314302884615 7.95276988636364  C 16.7190504807692 8.08416193181818  16.5811298076923 8.16051136363636  16.4176682692308 8.18181818181818  L 5.75180288461538 9.48153409090909  C 5.84034455128205 9.90767045454546  5.88461538461538 10.15625  5.88461538461538 10.2272727272727  C 5.88461538461538 10.3409090909091  5.80288461538462 10.5681818181818  5.63942307692308 10.9090909090909  L 15.0384615384615 10.9090909090909  C 15.2155448717949 10.9090909090909  15.3687900641026 10.9765625  15.4981971153846 11.1115056818182  C 15.6276041666667 11.2464488636364  15.6923076923077 11.40625  15.6923076923077 11.5909090909091  C 15.6923076923077 11.7755681818182  15.6276041666667 11.9353693181818  15.4981971153846 12.0703125  C 15.3687900641026 12.2052556818182  15.2155448717949 12.2727272727273  15.0384615384615 12  L 4.57692307692308 12  C 4.39983974358974 12.2727272727273  4.24659455128205 12.2052556818182  4.1171875 12.0703125  C 3.98778044871795 11.9353693181818  3.92307692307692 11.7755681818182  3.92307692307692 11.5909090909091  C 3.92307692307692 11.5127840909091  3.95032051282051 11.4009232954545  4.00480769230769 11.2553267045455  C 4.05929487179487 11.1097301136364  4.11378205128205 10.9818892045455  4.16826923076923 10.8718039772727  C 4.22275641025641 10.76171875  4.29597355769231 10.6196732954545  4.38792067307692 10.4456676136364  C 4.47986778846154 10.2716619318182  4.53265224358974 10.1669034090909  4.54627403846154 10.1313920454545  L 2.73798076923077 1.36363636363636  L 0.653846153846154 1.36363636363636  C 0.476762820512821 1.36363636363636  0.323517628205128 1.29616477272727  0.194110576923077 1.16122159090909  C 0.0647035256410256 1.02627840909091  0 0.866477272727272  0 0.681818181818181  C 0 0.49715909090909  0.0647035256410256 0.337357954545452  0.194110576923077 0.202414772727273  C 0.323517628205128 0.0674715909090895  0.476762820512821 0  0.653846153846154 0  L 3.26923076923077 0  C 3.37820512820513 0  3.47526041666667 0.0230823863636354  3.56039663461538 0.0692471590909094  C 3.6455328525641 0.115411931818182  3.7119391025641 0.170454545454545  3.75961538461538 0.234375  C 3.80729166666667 0.298295454545455  3.8515625 0.385298295454543  3.89242788461538 0.495383522727273  C 3.93329326923077 0.605468749999999  3.96053685897436 0.697798295454545  3.97415865384615 0.772372159090909  C 3.98778044871795 0.846946022727273  4.00651041666667 0.951704545454544  4.03034855769231 1.08664772727273  C 4.05418669871795 1.22159090909091  4.06951121794872 1.31392045454545  4.07632211538462 1.36363636363636  L 16.3461538461538 1.36363636363636  C 16.5232371794872 1.36363636363636  16.6764823717949 1.43110795454545  16.8058894230769 1.56605113636364  Z " fill-rule="nonzero" fill="#5d92ff" stroke="none" fill-opacity="0.827450980392157" transform="matrix(1 0 0 1 30 785 )" />
  </g>
</svg>